{"title":"2 Guns 2013 Webrip x264 AC3 UNiQUE","uid":9069755,"size":1499557470,"categoryP":"video","categoryS":"movies","magnet":"?xt=urn:btih:8f1a11ef8ad15676eb5f2017f3e30c17d29b4c56&amp;dn=2+Guns+2013+Webrip+x264+AC3+UNiQUE&amp;tr=udp%3A%2F%2Ftracker.openbittorrent.com%3A80&amp;tr=udp%3A%2F%2Fopen.demonii.com%3A1337&amp;tr=udp%3A%2F%2Ftracker.coppersurfer.tk%3A6969&amp;tr=udp%3A%2F%2Fexodus.desync.com%3A6969","seeders":5,"leechers":1,"uploader":"HeroMaster","files":-1,"time":1382182144,"description":"2 Guns 2013 Webrip x264 AC3 UNiQUE\n\n &lt;a href=&quot;\nhttp://www.imdb.com/title/tt1272878/&quot; rel=&quot;nofollow&quot; target=&quot;_NEW&quot;&gt;\nhttp://www.imdb.com/title/tt1272878/&lt;/a&gt;\n\n\nGeneral\nFormat: Matroska\nFormat version: Version 2\nFile size: 1.40 GiB\nDuration: 1h 44mn\nOverall bit rate mode: Variable\nOverall bit rate: 1 920 Kbps\nEncoded date: UTC 2013-10-19 07:11:00\nWriting application: mkvmerge v6.4.1 ('Omega Point') built on Sep 16 2013 22:05:10\nWriting library: libebml v1.3.0 + libmatroska v1.4.1\n\n\nVideo\n\nID: 1\nFormat: AVC\nFormat/Info: Advanced Video Codec\nFormat profile: &lt;a class=&quot;__cf_email__&quot; href=&quot;/cdn-cgi/l/email-protection&quot; data-cfemail=&quot;fab2939d92bab6ced4cb&quot;&gt;[email&amp;#160;protected]&lt;/a&gt;&lt;script cf-hash='f9e31' type=&quot;text/javascript&quot;&gt;\n/* &lt;![CDATA[ */!function(){try{var t=&quot;currentScript&quot;in document?document.currentScript:function(){for(var t=document.getElementsByTagName(&quot;script&quot;),e=t.length;e--;)if(t[e].getAttribute(&quot;cf-hash&quot;))return t[e]}();if(t&amp;&amp;t.previousSibling){var e,r,n,i,c=t.previousSibling,a=c.getAttribute(&quot;data-cfemail&quot;);if(a){for(e=&quot;&quot;,r=parseInt(a.substr(0,2),16),n=2;a.length-n;n+=2)i=parseInt(a.substr(n,2),16)^r,e+=String.fromCharCode(i);e=document.createTextNode(e),c.parentNode.replaceChild(e,c)}}}catch(u){}}();/* ]]&gt; */&lt;/script&gt;\nFormat settings, CABAC: Yes\nFormat settings, ReFrames: 3 frames\nCodec ID: V_MPEG4/ISO/AVC\nDuration: 1h 44mn\nBit rate mode: Variable\nBit rate: 1 724 Kbps\nMaximum bit rate: 40.0 Mbps\nWidth: 720 pixels\nHeight: 320 pixels\nDisplay aspect ratio: 2.25:1\nFrame rate: 60.000 fps\nColor space: YUV\nChroma subsampling: 4:2:0\nBit depth: 8 bits\nScan type: Progressive\nBits/(Pixel*Frame): 0.125\nStream size: 1.23 GiB (88%)\nWriting library: x264 core 138 r2358 9e941d1\nDefault: Yes\nForced: No\n\n\nAudio\n\nID: 2\nFormat: AC-3\nFormat/Info: Audio Coding 3\nMode extension: CM (complete main)\nFormat settings, Endianness: Big\nCodec ID: A_AC3\nDuration: 1h 44mn\nBit rate mode: Constant\nBit rate: 192 Kbps\nChannel(s): 2 channels\nChannel positions: Front: L R\nSampling rate: 44.1 KHz\nBit depth: 16 bits\nCompression mode: Lossy\nStream size: 143 MiB (10%)\nLanguage: English\nDefault: Yes\nForced: No \n\n\nPlot:\n\n\nA DEA agent and a naval intelligence officer find themselves on the \nrun after a botched attempt to infiltrate a drug cartel. While fleeing, \nthey learn the secret of their shaky alliance: Neither knew that the other \nwas an undercover agent.\n\n\nNotes:\n\n\nSource KingStoner (thx)\n\nHas HC Arabian subs just re-sized, filtered, \ncropped, etc so enjoy or wait for better\n\n\nPoster:\n\n &lt;a href=&quot;\nhttp://i.imgur.com/Xgren8g.jpg&quot; rel=&quot;nofollow&quot; target=&quot;_NEW&quot;&gt;\nhttp://i.imgur.com/Xgren8g.jpg&lt;/a&gt;\n\n\nScreenshots:\n\n &lt;a href=&quot;\nhttp://i.imgur.com/czLfOnu.png&quot; rel=&quot;nofollow&quot; target=&quot;_NEW&quot;&gt;\nhttp://i.imgur.com/czLfOnu.png&lt;/a&gt;\n\n &lt;a href=&quot;\nhttp://i.imgur.com/2DGI8uR.png&quot; rel=&quot;nofollow&quot; target=&quot;_NEW&quot;&gt;\nhttp://i.imgur.com/2DGI8uR.png&lt;/a&gt;\n\n &lt;a href=&quot;\nhttp://i.imgur.com/bXybqj5.png&quot; rel=&quot;nofollow&quot; target=&quot;_NEW&quot;&gt;\nhttp://i.imgur.com/bXybqj5.png&lt;/a&gt;\n\n\nSEED AND ENJOY!","torrent":{"xt":"urn:btih:8f1a11ef8ad15676eb5f2017f3e30c17d29b4c56","amp;dn":"2+Guns+2013+Webrip+x264+AC3+UNiQUE","amp;tr":["udp%3A%2F%2Ftracker.openbittorrent.com%3A80","udp%3A%2F%2Fopen.demonii.com%3A1337","udp%3A%2F%2Ftracker.coppersurfer.tk%3A6969","udp%3A%2F%2Fexodus.desync.com%3A6969"],"infoHash":"8f1a11ef8ad15676eb5f2017f3e30c17d29b4c56","infoHashBuffer":{"type":"Buffer","data":[143,26,17,239,138,209,86,118,235,95,32,23,243,227,12,23,210,155,76,86]},"announce":[],"urlList":[]}}